<?xml version="1.0" encoding="utf-8"?>
<!-- Generated by IcoMoon.io -->
<!DOCTYPE svg PUBLIC "-//W3C//DTD SVG 1.1//EN" "http://www.w3.org/Graphics/SVG/1.1/DTD/svg11.dtd">
<svg version="1.1" xmlns="http://www.w3.org/2000/svg" xmlns:xlink="http://www.w3.org/1999/xlink" width="128" height="272" viewBox="0 0 128 272">
<svg id="icon-iconfont-zhihu" width="32" height="32" viewBox="0 0 32 32" x="0" y="0">
<path fill="#7B858E" d="M12.172 20.502l-1.522 1.697c0.152 0.044 0.348 0.261 0.652 0.652 1.153 1.392 2.24 2.849 3.415 4.22 0.5 0.566 0.522 0.674 0.609 0.435 0.37-1.174 0.739-2.262 0.413-2.762-0.805-0.913-2.784-3.306-3.567-4.241zM17.087 17.523c-0.152-0.892-0.609-1.957-1.523-1.957-1.109-0.022-1.936 0-3.045 0-0.435 0-0.848-0.13-0.783-0.739 0.152-1.718 0.022-3.437 0.196-5.133 0.065-0.696 0.348-0.913 1.001-0.892 0.848 0.022 2.393 0.022 3.241 0 1-0.022 1.24 0.283 0.196-1.479-0.305-0.544-0.739-0.457-1.24-0.457-2.131 0-4.394-0.022-6.525 0-0.718 0-0.848-0.37-0.587-1.066 0.239-0.674 0.544-1.936 0.761-2.632 0.196-0.652 0-0.478 0-0.478-0.892 0.522-2.436 1.196-2.806 2.11-0.892 2.24-1.892 5.068-2.828 7.308-0.087 0.196-0.152 0.217 0.5 0.065 1.175-0.304 2.349-0.914 2.914-2.023 0.696-1.348 0.827-1.435 2.306-1.305 0.457 0.043 0.631 0.174 0.631 0.652-0.043 1.675-0.087 3.371-0.065 5.046 0 0.739-0.305 1.088-1.001 1.066-1.109-0.043-2.371 0.022-3.48 0-0.718-0.022-1.522 0.718-1.631 1.696-0.109 0.326-0.196 0.435-0.152 0.435 1.283-0.022 3.719 0.044 5.003 0 0.696-0.022 0.957 0.131 0.848 0.87-0.261 1.718-0.761 3.349-1.588 4.872-1 1.87-2.349 3.48-4.002 4.851-0.196 0.152-0.478 0.326-0.413 0.631 0.087 0.326 0.435 0.283 0.674 0.283 1.566-0.065 3.088-0.239 4.198-1.566 1.131-1.327 1.805-2.893 2.414-4.502l0.739-2.436c0.109-0.609 0.304-1.218 0.326-1.827 0.065-1 0.479-1.175 1.37-1.175 1.153-0.022 3.175-0.022 4.35 0 0.261 0 0.022 0.022 0-0.218zM18.175 7.082v19.793h2.175l0.631 2.392 3.284-2.392h5.003v-19.793h-11.093zM27.093 24.918h-2.175l-3.067 1.979-0.631-1.979h-0.87v-15.878h6.743v15.878z"></path>
</svg>
<svg id="icon-iconfont-facebook" width="32" height="32" viewBox="0 0 32 32" x="48" y="0">
<path fill="#7B858E" d="M16.677 30.497c1.931 0 3.755 0 4.52 0v0.003c-0.768 0-2.588 0-4.52-0.003v0zM8.679 1.517c-0.651 0.011-1.308 0.054-1.897 0.164-0.64 0.122-1.223 0.283-1.807 0.581-0.592 0.3-1.102 0.711-1.558 1.155-0.445 0.456-0.855 0.969-1.155 1.558-0.295 0.583-0.459 1.164-0.581 1.807-0.11 0.589-0.153 1.246-0.164 1.897-0.003 0.147-0.003 0.283-0.006 0.496l-0.008 12.744c0 0.161 0.003 0.337 0.003 0.53 0.006 0.462 0.008 0.651 0.011 0.869 0.011 0.651 0.054 1.308 0.164 1.897 0.054 0.28 0.113 0.549 0.19 0.81 0.099 0.337 0.224 0.666 0.391 0.994 0.3 0.592 0.711 1.102 1.155 1.558 0.456 0.445 0.969 0.855 1.558 1.155 0.583 0.295 1.164 0.459 1.807 0.581 0.589 0.11 1.246 0.153 1.897 0.164 0.218 0.003 0.408 0.006 0.869 0.011 0.439 0.003 0.799 0.006 1.065 0.006 0.739 0 3.498 0 6.060 0v-11.243h-3.645v-4.206h3.619v-3.914c0-3.005 2.322-5.157 5.324-5.157l3.886 0.085v4.038h-2.968c-0.858 0-1.555 0.949-1.555 1.81v3.138h4.378l-0.623 4.208h-3.894v11.243c0.071 0 0.136 0 0.187 0 0.266 0 0.626-0.003 1.065-0.006 0.365-0.003 0.561-0.006 0.733-0.006 0.045 0 0.091 0 0.139-0.003 0.651-0.011 1.308-0.054 1.897-0.164 0.64-0.122 1.223-0.283 1.807-0.581 0.592-0.3 1.102-0.711 1.558-1.155 0.445-0.456 0.855-0.969 1.155-1.558 0.295-0.583 0.459-1.164 0.581-1.807 0.11-0.589 0.153-1.246 0.164-1.897 0.003-0.218 0.006-0.408 0.011-0.869 0.003-0.439 0.006-0.799 0.006-1.065v-10.77c0-0.091 0-0.195 0-0.309 0-0.215-0.003-0.47-0.006-0.759-0.006-0.462-0.008-0.651-0.011-0.869-0.011-0.651-0.054-1.308-0.164-1.897-0.122-0.64-0.283-1.223-0.581-1.807-0.3-0.592-0.711-1.102-1.155-1.558-0.456-0.445-0.969-0.855-1.558-1.155-0.583-0.295-1.164-0.459-1.807-0.581-0.589-0.11-1.246-0.153-1.897-0.164-0.218-0.003-0.408-0.006-0.869-0.011-0.442-0.003-0.802-0.006-1.068-0.006h-10.77c-0.266 0-0.626 0.003-1.065 0.006-0.462 0.006-0.651 0.008-0.869 0.011z"></path>
</svg>
<svg id="icon-iconfont-github" width="32" height="32" viewBox="0 0 32 32" x="96" y="0">
<path fill="#7B858E" d="M16 0.395c-8.836 0-16 7.163-16 16 0 7.069 4.585 13.067 10.942 15.182 0.8 0.148 1.094-0.347 1.094-0.77 0-0.381-0.015-1.642-0.022-2.979-4.452 0.968-5.391-1.888-5.391-1.888-0.728-1.849-1.776-2.341-1.776-2.341-1.452-0.993 0.11-0.973 0.11-0.973 1.606 0.113 2.452 1.649 2.452 1.649 1.427 2.446 3.743 1.739 4.656 1.33 0.143-1.034 0.558-1.74 1.016-2.14-3.554-0.404-7.29-1.777-7.29-7.907 0-1.747 0.625-3.174 1.649-4.295-0.166-0.403-0.714-2.030 0.155-4.234 0 0 1.344-0.43 4.401 1.64 1.276-0.355 2.645-0.532 4.005-0.539 1.359 0.006 2.729 0.184 4.008 0.539 3.054-2.070 4.395-1.64 4.395-1.64 0.871 2.204 0.323 3.831 0.157 4.234 1.026 1.12 1.647 2.548 1.647 4.295 0 6.145-3.743 7.498-7.306 7.895 0.574 0.497 1.085 1.47 1.085 2.963 0 2.141-0.019 3.864-0.019 4.391 0 0.426 0.288 0.925 1.099 0.768 6.354-2.118 10.933-8.113 10.933-15.18 0-8.837-7.164-16-16-16z"></path>
</svg>
<svg id="icon-iconfont-github-2" width="32" height="32" viewBox="0 0 32 32" x="0" y="48">
<path fill="#7B858E" d="M0.002 17.388c0 1.45 0.136 2.762 0.407 3.935s0.647 2.193 1.127 3.059c0.48 0.866 1.090 1.627 1.831 2.285s1.544 1.195 2.41 1.612c0.866 0.417 1.854 0.756 2.965 1.017s2.245 0.443 3.403 0.548c1.158 0.104 2.431 0.156 3.818 0.156 1.398 0 2.676-0.052 3.834-0.156s2.295-0.287 3.411-0.548c1.116-0.261 2.11-0.6 2.981-1.017s1.68-0.954 2.425-1.612c0.746-0.657 1.361-1.419 1.846-2.285s0.863-1.886 1.134-3.059c0.271-1.174 0.407-2.486 0.407-3.935 0-2.587-0.866-4.825-2.597-6.713 0.094-0.25 0.18-0.535 0.258-0.853s0.151-0.772 0.219-1.361c0.068-0.589 0.042-1.27-0.078-2.042s-0.342-1.56-0.665-2.363l-0.235-0.047c-0.167-0.031-0.441-0.023-0.822 0.024s-0.824 0.141-1.33 0.282c-0.506 0.141-1.158 0.412-1.956 0.814s-1.64 0.905-2.527 1.51c-1.523-0.417-3.615-0.626-6.275-0.626-2.65 0-4.736 0.209-6.259 0.626-0.887-0.605-1.734-1.108-2.543-1.51s-1.453-0.673-1.933-0.814c-0.48-0.141-0.928-0.232-1.346-0.274s-0.681-0.055-0.79-0.039c-0.11 0.016-0.196 0.034-0.258 0.055-0.323 0.803-0.545 1.591-0.665 2.363s-0.146 1.453-0.078 2.042c0.068 0.589 0.141 1.043 0.219 1.361s0.164 0.602 0.258 0.853c-1.732 1.888-2.598 4.126-2.598 6.713zM3.93 21.315c0-1.502 0.683-2.879 2.050-4.131 0.407-0.376 0.881-0.66 1.424-0.853s1.155-0.302 1.839-0.329c0.683-0.026 1.338-0.021 1.964 0.016s1.398 0.086 2.316 0.149c0.918 0.063 1.711 0.094 2.379 0.094s1.46-0.031 2.378-0.094c0.918-0.063 1.69-0.112 2.316-0.149s1.28-0.042 1.964-0.016c0.683 0.026 1.296 0.136 1.839 0.329s1.017 0.477 1.424 0.853c1.367 1.231 2.050 2.608 2.050 4.131 0 0.897-0.112 1.693-0.337 2.386s-0.511 1.275-0.861 1.745c-0.349 0.469-0.834 0.868-1.455 1.197s-1.226 0.582-1.815 0.759c-0.589 0.177-1.346 0.316-2.269 0.415s-1.747 0.159-2.472 0.18c-0.725 0.021-1.646 0.031-2.762 0.031s-2.037-0.010-2.762-0.031c-0.725-0.021-1.549-0.081-2.472-0.18s-1.68-0.237-2.269-0.415c-0.589-0.177-1.194-0.43-1.815-0.759s-1.106-0.728-1.455-1.197c-0.349-0.469-0.636-1.051-0.861-1.745s-0.336-1.489-0.336-2.386zM20.002 21c0-1.657 0.895-3 2-3s2 1.343 2 3c0 1.657-0.895 3-2 3s-2-1.343-2-3zM8.002 21c0-1.657 0.895-3 2-3s2 1.343 2 3c0 1.657-0.895 3-2 3s-2-1.343-2-3z"></path>
</svg>
<svg id="icon-iconfont-stackoverflow" width="32" height="32" viewBox="0 0 32 32" x="48" y="48">
<path fill="#7B858E" d="M20 25.393v2.696l-12.625 0.018v-2.696zM24.304 19.214v12.518l-0.018 0.625v0.018l-20.857-0.018v-13.143h2.161v11.035h16.571v-11.035h2.143zM7.733 20.785l12.571 1.161-0.232 2.679-12.59-1.161zM8.946 15.143l12.197 3.267-0.696 2.607-12.197-3.267zM11.857 8.911l10.875 6.429-1.375 2.321-10.875-6.429zM18.286 3l7.107 10.447-2.214 1.518-7.125-10.429zM26.375 0.375l2.161 12.447-2.661 0.464-2.161-12.447z"></path>
</svg>
<svg id="icon-iconfont-sf" width="32" height="32" viewBox="0 0 32 32" x="96" y="48">
<path fill="#7B858E" d="M4.859 23.83c1.080 0.979 2.633 1.857 4.119 1.857 1.080 0 2.296-0.473 2.296-1.756 0-1.418-1.654-1.654-3.511-2.465-2.093-0.912-3.849-2.026-3.849-4.693 0-3.477 2.802-4.963 6.28-4.963 1.891 0 3.917 0.439 5.368 1.384v0.405l-1.35 2.668c-0.945-0.709-2.228-1.181-3.646-1.181-1.249 0-2.026 0.506-2.026 1.485 0 1.283 1.486 1.553 3.342 2.262 2.566 0.979 4.119 2.060 4.119 4.794 0 3.578-2.802 5.132-6.516 5.132-2.364 0-4.254-0.642-6.043-1.992v-0.405l1.418-2.532zM20.117 28.724c0-0.342 0.068-9.661 0.102-12.881-0.924 0.034-1.884 0.034-2.157 0.034l0.034-3.46c0.274 0 1.2 0 2.089 0.034 0-0.137-0.068-2.981-0.068-3.083 0-3.871 2.261-5.31 5.207-5.31 1.267 0 2.569 0.206 3.872 0.754v0.514l-0.994 2.741c-0.548-0.308-1.164-0.48-1.713-0.48-0.959 0-1.576 0.48-1.576 2.295 0 0.617 0.035 2.432 0.035 2.57 1.027-0.034 2.981-0.034 3.254-0.034l-0.034 3.46c-0.274 0-2.227 0-3.255-0.034 0.069 3.22 0.069 12.539 0.069 12.881h-4.865z"></path>
</svg>
<svg id="icon-iconfont-douban" width="32" height="32" viewBox="0 0 32 32" x="0" y="96">
<path fill="#7B858E" d="M3.974 4.047h24.057v2.71h-24.057v-2.71zM25.94 20.177v-10.593h-19.875v10.593h19.875zM8.947 12.292h14.139v5.179h-14.139v-5.179zM21.641 26.283c0.865-1.324 1.681-2.859 2.437-4.602l-2.891-1.054c-0.752 2.065-1.627 3.953-2.624 5.655h-5.031c-0.834-2.206-1.775-4.093-2.831-5.655l-2.659 1.054c1.097 1.645 1.981 3.177 2.659 4.602h-7.407v2.68h25.419v-2.68h-7.072z"></path>
</svg>
<svg id="icon-iconfont-lofter" width="32" height="32" viewBox="0 0 32 32" x="48" y="96">
<path fill="#7B858E" d="M13.035 3.191v20.626l14.472-0.043v5.784h-20.431v-26.367h5.959z"></path>
</svg>
<svg id="icon-iconfont-linkedin" width="32" height="32" viewBox="0 0 32 32" x="96" y="96">
<path fill="#7B858E" d="M8.732 11.661v17.696h-5.893v-17.696h5.893zM9.107 6.196q0.018 1.304-0.902 2.178t-2.419 0.875h-0.035q-1.464 0-2.358-0.875t-0.893-2.178q0-1.321 0.92-2.187t2.402-0.866 2.375 0.866 0.911 2.187zM29.929 19.214v10.143h-5.875v-9.464q0-1.875-0.723-2.937t-2.259-1.063q-1.125 0-1.883 0.616t-1.134 1.527q-0.197 0.536-0.197 1.447v9.875h-5.875q0.035-7.125 0.035-11.553t-0.018-5.286l-0.018-0.857h5.875v2.571h-0.035q0.358-0.571 0.733-1t1.009-0.928 1.553-0.777 2.045-0.277q3.054 0 4.911 2.026t1.857 5.937z"></path>
</svg>
<svg id="icon-link" width="32" height="32" viewBox="0 0 32 32" x="0" y="144">
<path fill="#ffffff" d="M13.757 19.868c-0.416 0-0.832-0.159-1.149-0.476-2.973-2.973-2.973-7.81 0-10.783l6-6c1.44-1.44 3.355-2.233 5.392-2.233s3.951 0.793 5.392 2.233c2.973 2.973 2.973 7.81 0 10.783l-2.743 2.743c-0.635 0.635-1.663 0.635-2.298 0s-0.635-1.663 0-2.298l2.743-2.743c1.706-1.706 1.706-4.481 0-6.187-0.826-0.826-1.925-1.281-3.094-1.281s-2.267 0.455-3.094 1.281l-6 6c-1.706 1.706-1.706 4.481 0 6.187 0.635 0.635 0.635 1.663 0 2.298-0.317 0.317-0.733 0.476-1.149 0.476z"></path>
<path fill="#ffffff" d="M8 31.625c-2.037 0-3.952-0.793-5.392-2.233-2.973-2.973-2.973-7.81 0-10.783l2.743-2.743c0.635-0.635 1.664-0.635 2.298 0s0.635 1.663 0 2.298l-2.743 2.743c-1.706 1.706-1.706 4.481 0 6.187 0.826 0.826 1.925 1.281 3.094 1.281s2.267-0.455 3.094-1.281l6-6c1.706-1.706 1.706-4.481 0-6.187-0.635-0.635-0.635-1.663 0-2.298s1.663-0.635 2.298 0c2.973 2.973 2.973 7.81 0 10.783l-6 6c-1.44 1.44-3.355 2.233-5.392 2.233z"></path>
</svg>
<svg id="icon-trash" width="32" height="32" viewBox="0 0 32 32" x="0" y="192">
<path fill="#7B858E" d="M29.98 6.819c-0.096-1.57-1.387-2.816-2.98-2.816h-3v-1.002c0-1.657-1.344-3-3-3h-10c-1.657 0-3 1.343-3 3v1.001h-3c-1.595 0-2.885 1.246-2.981 2.816h-0.019v2.183c0 1.104 0.896 2 2 2v0 17c0 2.209 1.791 4 4 4h16c2.209 0 4-1.791 4-4v-17c1.104 0 2-0.896 2-2v-2.182h-0.020zM10 3.002c0-0.553 0.447-1 1-1h10c0.553 0 1 0.447 1 1v1h-12v-1zM26 28.002c0 1.102-0.898 2-2 2h-16c-1.103 0-2-0.898-2-2v-17h20v17zM28 8.001v1h-24v-1.999c0-0.553 0.447-1 1-1h22c0.553 0 1 0.447 1 1v0.999zM9 28.006h2c0.553 0 1-0.447 1-1v-13c0-0.553-0.447-1-1-1h-2c-0.553 0-1 0.447-1 1v13c0 0.553 0.447 1 1 1zM9 14.005h2v13h-2v-13zM15 28.006h2c0.553 0 1-0.447 1-1v-13c0-0.553-0.447-1-1-1h-2c-0.553 0-1 0.447-1 1v13c0 0.553 0.447 1 1 1zM15 14.005h2v13h-2v-13zM21 28.006h2c0.553 0 1-0.447 1-1v-13c0-0.553-0.447-1-1-1h-2c-0.553 0-1 0.447-1 1v13c0 0.553 0.447 1 1 1zM21 14.005h2v13h-2v-13z"></path>
</svg>
<svg id="icon-paperplane" width="32" height="32" viewBox="0 0 32 32" x="48" y="192">
<path fill="#7B858E" d="M31.543 0.16c-0.166-0.107-0.355-0.16-0.543-0.16-0.193 0-0.387 0.055-0.555 0.168l-30 20c-0.309 0.205-0.479 0.566-0.439 0.936 0.038 0.369 0.278 0.688 0.623 0.824l7.824 3.131 3.679 6.438c0.176 0.309 0.503 0.5 0.857 0.504 0.004 0 0.007 0 0.011 0 0.351 0 0.677-0.186 0.857-0.486l2.077-3.463 9.695 3.877c0.119 0.048 0.244 0.071 0.371 0.071 0.17 0 0.338-0.043 0.49-0.129 0.264-0.148 0.445-0.408 0.496-0.707l5-30c0.065-0.393-0.109-0.787-0.443-1.004zM3.136 20.777l23.175-15.451-16.85 18.037c-0.089-0.053-0.168-0.123-0.266-0.162l-6.059-2.424zM10.189 24.066c-0.002-0.004-0.005-0.006-0.007-0.010l18.943-20.275-16.149 25.162-2.787-4.877zM25.217 29.609l-8.541-3.416c-0.203-0.080-0.414-0.107-0.623-0.119l13.152-20.388-3.988 23.923z"></path>
</svg>
<svg id="icon-banknote" width="32" height="32" viewBox="0 0 32 32" x="96" y="192">
<path fill="#7B858E" d="M31.415 10.586l-10-10c-0.496-0.496-1.215-0.695-1.896-0.527-0.359 0.088-0.68 0.273-0.934 0.527-0.227 0.227-0.398 0.508-0.496 0.822-0.453 1.469-1.236 2.746-2.395 3.904-1.548 1.547-3.564 2.719-5.697 3.958-2.264 1.312-4.603 2.672-6.52 4.588-1.629 1.631-2.738 3.445-3.388 5.551-0.219 0.711-0.028 1.48 0.496 2.006l10 10c0.496 0.496 1.215 0.695 1.896 0.527 0.359-0.090 0.68-0.273 0.934-0.527 0.227-0.227 0.398-0.508 0.496-0.824 0.454-1.469 1.237-2.746 2.397-3.904 1.547-1.547 3.562-2.717 5.697-3.955 2.262-1.314 4.602-2.674 6.518-4.59 1.629-1.629 2.738-3.445 3.389-5.551 0.218-0.71 0.026-1.482-0.497-2.005zM12 30c-3.312-3.312-6.688-6.689-10-10 2.842-9.201 15.16-8.799 18-18 3.312 3.311 6.689 6.688 10.002 10-2.843 9.199-15.161 8.799-18.002 18zM19.562 14.9c-0.326-0.273-0.654-0.459-0.984-0.551-0.328-0.092-0.656-0.129-0.988-0.105-0.328 0.025-0.664 0.1-1 0.229-0.336 0.131-0.674 0.273-1.014 0.438-0.537-0.617-1.074-1.227-1.611-1.793 0.242-0.219 0.477-0.33 0.703-0.338 0.227-0.010 0.445 0.014 0.652 0.066 0.211 0.053 0.404 0.098 0.582 0.133 0.18 0.035 0.336-0.004 0.473-0.119 0.145-0.125 0.225-0.287 0.236-0.482 0.010-0.197-0.064-0.389-0.229-0.576-0.211-0.242-0.465-0.389-0.77-0.443-0.301-0.053-0.609-0.049-0.93 0.021-0.316 0.072-0.617 0.191-0.902 0.359s-0.514 0.34-0.684 0.508c-0.065-0.062-0.13-0.123-0.195-0.184-0.072-0.066-0.162-0.102-0.27-0.1-0.109 0-0.199 0.047-0.273 0.133-0.072 0.084-0.105 0.182-0.092 0.285 0.010 0.107 0.053 0.189 0.127 0.252 0.065 0.055 0.13 0.109 0.195 0.166-0.256 0.309-0.467 0.65-0.633 1.010-0.168 0.361-0.268 0.719-0.305 1.066-0.039 0.35-0.002 0.67 0.105 0.967 0.107 0.299 0.305 0.553 0.594 0.793 0.471 0.391 1.025 0.557 1.668 0.52 0.641-0.039 1.332-0.23 2.075-0.629 0.59 0.682 1.182 1.359 1.773 1.988-0.25 0.211-0.469 0.332-0.662 0.371-0.193 0.041-0.365 0.037-0.521-0.010-0.156-0.049-0.301-0.119-0.434-0.209-0.133-0.092-0.264-0.17-0.395-0.234-0.129-0.064-0.262-0.1-0.398-0.102s-0.281 0.064-0.441 0.201c-0.164 0.143-0.246 0.309-0.246 0.496s0.086 0.375 0.254 0.566c0.17 0.191 0.391 0.352 0.658 0.479s0.569 0.207 0.901 0.229c0.332 0.023 0.682-0.027 1.051-0.164 0.371-0.135 0.738-0.379 1.1-0.742 0.174 0.17 0.35 0.332 0.525 0.488 0.074 0.064 0.164 0.096 0.273 0.088 0.105-0.004 0.197-0.053 0.27-0.141 0.074-0.090 0.105-0.189 0.094-0.293-0.010-0.105-0.053-0.186-0.125-0.244-0.176-0.141-0.352-0.289-0.527-0.445 0.299-0.367 0.539-0.754 0.717-1.137 0.178-0.385 0.283-0.756 0.318-1.1 0.035-0.346-0.006-0.658-0.119-0.941-0.112-0.287-0.311-0.533-0.596-0.77zM13.971 15.578c-0.283 0.012-0.53-0.082-0.746-0.291-0.092-0.088-0.156-0.195-0.195-0.322-0.041-0.127-0.055-0.266-0.039-0.418 0.014-0.15 0.059-0.307 0.137-0.465 0.074-0.158 0.184-0.316 0.324-0.469 0.507 0.504 1.013 1.057 1.52 1.629-0.384 0.211-0.718 0.324-1.001 0.336zM18.688 17.58c-0.090 0.166-0.193 0.314-0.314 0.443-0.561-0.566-1.121-1.188-1.68-1.826 0.143-0.064 0.293-0.131 0.455-0.199s0.324-0.113 0.486-0.141c0.166-0.025 0.33-0.018 0.494 0.021 0.162 0.041 0.316 0.129 0.459 0.268 0.141 0.141 0.23 0.287 0.266 0.445 0.039 0.16 0.041 0.322 0.014 0.488-0.029 0.167-0.088 0.333-0.18 0.501zM14.717 22.18c0.197-0.159 0.487-0.151 0.668 0.033 0.196 0.195 0.196 0.514 0 0.709-0.016 0.016-0.033 0.027-0.051 0.041l0.002 0.002c-0.633 0.481-1.153 0.914-1.714 1.475-0.507 0.506-0.965 1.039-1.361 1.58l-0.639 0.875c-0.020 0.036-0.044 0.069-0.074 0.1-0.196 0.195-0.515 0.195-0.71 0-0.17-0.17-0.191-0.432-0.066-0.627l-0.002-0.002 0.684-0.934c0.427-0.584 0.918-1.156 1.461-1.699 0.565-0.567 1.175-1.073 1.8-1.553h0.002zM18.378 7.715c0.506-0.506 0.963-1.037 1.36-1.581l0.664-0.91c0.024-0.043 0.051-0.086 0.088-0.123 0.197-0.197 0.516-0.197 0.713 0 0.187 0.188 0.195 0.485 0.025 0.684l0.002 0.002-0.684 0.938c-0.428 0.584-0.918 1.154-1.461 1.697-0.565 0.565-1.174 1.073-1.799 1.553l-0.004-0.002c-0.199 0.183-0.508 0.179-0.699-0.014-0.197-0.197-0.197-0.518 0-0.715 0.035-0.037 0.076-0.063 0.117-0.086 0.588-0.449 1.155-0.92 1.678-1.443z"></path>
</svg>
<svg id="icon-fire" width="32" height="32" viewBox="0 0 32 32" x="0" y="240">
<path fill="#7B858E" d="M22 9c-0.062 2.675-2.070 4.934-2.070 4.934 0-4.976-3.93-8.934-3.93-8.934s-0.053 2.962-2.043 5.948c-1.99-6.967-7.962-10.948-7.962-10.948 2.986 10.948-0.995 14.93-0.995 22.892 0 4.671 3.954 9.108 10 9.108 8.957 0 10.689-3.288 11.615-6.993 1.276-5.101-0.635-11.031-4.615-16.007zM24.676 24.521c-0.643 2.569-1.369 5.479-9.676 5.479-5.008 0-8-3.614-8-7.108 0-2.676 0.488-4.873 1.004-7.199 0.656-2.949 1.328-5.968 1.037-9.961 3.084 4.269 4.182 9.925 4.182 9.925s2.871-4.031 3.643-5.903c0.591 1.203 1.134 5.246 1.134 9.246 0 0 2.656-2.188 4.648-5.478 2.098 3.762 2.854 7.695 2.028 10.999zM22.432 16.795l0.186 1.035c0.416 2.318 0.183 5.058-0.592 6.982-0.078 0.195-0.266 0.313-0.463 0.313-0.063 0-0.127-0.012-0.188-0.036-0.256-0.103-0.381-0.394-0.277-0.65 0.584-1.449 0.83-3.489 0.674-5.353-1.004 1.122-2.269 2.291-4.972 3.575l-0.506 0.239-0.182-0.528c-0.362-1.050-0.727-2.111-0.885-3.59-0.541 0.853-1.035 1.613-1.865 2.743l-0.508 0.692-0.352-0.784c-0.861-1.925-1.517-3.428-2.037-4.75-0.481 1.545-0.84 3.332-0.84 6.941 0 0.276-0.225 0.5-0.5 0.5-0.277 0-0.5-0.224-0.5-0.5 0-4.709 0.625-6.523 1.285-8.444l0.52-1.51 0.479 1.35c0.515 1.451 1.193 3.050 2.152 5.212 0.632-0.893 1.056-1.565 1.568-2.376l1.518-2.378v1.709c0 1.924 0.346 3.181 0.727 4.323 2.659-1.338 3.655-2.502 4.708-3.73l0.85-0.985z"></path>
</svg>
</svg>
